<svg width="512" height="512" viewBox="0 0 512 512" fill="none" xmlns="http://www.w3.org/2000/svg">
  <rect width="512" height="512" rx="128" fill="#22c55e"/>
  <path d="M256 128C185.3 128 128 185.3 128 256C128 326.7 185.3 384 256 384C326.7 384 384 326.7 384 256C384 185.3 326.7 128 256 128ZM256 341.3C211.8 341.3 176 305.5 176 261.3C176 217.1 211.8 181.3 256 181.3C300.2 181.3 336 217.1 336 261.3C336 305.5 300.2 341.3 256 341.3Z" fill="white"/>
  <path d="M256 192V256L298.7 277.3" stroke="white" stroke-width="24" stroke-linecap="round"/>
</svg>
